<svg width="162" height="32" viewBox="0 0 162 32" fill="none" xmlns="http://www.w3.org/2000/svg">
<g clip-path="url(#clip0_730_196)">
<path d="M22.796 23.5179C22.5994 29.3974 19.7499 31.9998 11.3488 31.9998C0.196517 31.9998 0 26.4094 0 22.8914V3.61426H9.03977V23.6625C9.03977 25.8793 9.03977 27.5179 11.398 27.5179C13.7562 27.5179 13.8544 25.8793 13.8544 23.6625V3.61426H22.8942V23.5179H22.796Z" fill="black"/>
<path d="M33.8007 6.79532H33.899C34.3412 4.43388 36.6502 3.56641 39.8436 3.56641C44.56 3.56641 45.9848 6.45797 45.9848 9.25315V21.5905C45.9848 24.3375 44.3635 26.458 39.991 26.458C36.8467 26.458 34.6851 25.3013 33.899 23.2291H33.8007V31.1809H25.2031V3.85556H33.8007V6.79532ZM33.8007 19.9038C33.8007 20.8676 34.5377 21.4459 35.6185 21.4459C36.6994 21.4459 37.3872 20.9158 37.3872 19.9038V10.217C37.3872 9.25315 36.6502 8.67484 35.6185 8.67484C34.5868 8.67484 33.8007 9.20496 33.8007 10.217V19.9038Z" fill="black"/>
<path d="M48.3433 14.2168H61.4116V19.2288H48.3433V14.2168Z" fill="black"/>
<path d="M73.1532 9.10855H73.3497C74.578 6.98807 76.6414 5.63867 80.0804 5.63867C84.7968 5.63867 86.369 7.90373 86.369 10.4098V19.0845H77.0344V13.2049C77.0344 12.2411 76.6414 11.229 75.0693 11.229C73.4971 11.229 73.1041 12.2411 73.1041 13.2049V30.2652H63.7695V5.92783H73.1041V9.10855H73.1532Z" fill="black"/>
<path d="M111.474 24.0483C111.474 28.5302 106.168 30.5061 100.224 30.5061C94.2791 30.5061 88.9731 28.5784 88.9731 24.0483V12.482C88.9731 8.0965 93.0017 5.63867 100.224 5.63867C107.446 5.63867 111.474 8.0965 111.474 12.482V24.0483ZM98.2586 24.3857C98.2586 25.2531 98.7499 26.0724 100.224 26.0724C101.698 26.0724 102.189 25.2531 102.189 24.3857V11.7592C102.189 10.8917 101.698 10.0724 100.224 10.0724C98.7499 10.0724 98.2586 10.8917 98.2586 11.7592V24.3857Z" fill="black"/>
<path d="M127.245 27.3736H127.146C126.016 29.1085 124.297 30.5061 120.612 30.5061C116.534 30.5061 114.078 28.723 114.078 25.5423V21.9278C114.078 15.5664 127.294 16.3375 127.294 11.8555C127.294 10.8917 126.901 10.0724 125.329 10.0724C123.756 10.0724 123.363 10.8917 123.363 11.8555V14.5061H114.029V12.2411C114.029 7.37361 119.679 5.63867 125.279 5.63867C130.88 5.63867 136.53 7.37361 136.53 12.2411V30.1688H127.195V27.3254L127.245 27.3736ZM123.363 24.0001C123.363 24.8676 124.199 25.2531 125.083 25.2531C127.048 25.2531 127.245 24.3375 127.245 22.1688V17.976C125.427 18.8917 123.363 19.47 123.363 21.3495V24.0001V24.0001Z" fill="black"/>
<path d="M152.399 27.1325H152.301C151.809 29.5422 149.304 30.506 145.865 30.506C140.755 30.506 139.183 27.3735 139.183 24.4337V11.0361C139.183 7.95181 140.952 5.63855 145.668 5.63855C149.107 5.63855 151.465 7.03615 152.251 9.25301H152.35V0H161.684V30.2169H152.35V27.1807L152.399 27.1325ZM148.518 23.3253C148.518 24.3855 149.353 24.9639 150.483 24.9639C151.613 24.9639 152.448 24.3855 152.448 23.3253V12.8193C152.448 11.759 151.613 11.1807 150.483 11.1807C149.353 11.1807 148.518 11.759 148.518 12.8193V23.3253Z" fill="black"/>
</g>
<defs>
<clipPath id="clip0_730_196">
<rect width="161.684" height="32" fill="white"/>
</clipPath>
</defs>
</svg>
