<svg width="27" height="22" viewBox="0 0 27 22" fill="none" xmlns="http://www.w3.org/2000/svg">
<path d="M9.2569 15.2412C10.55 15.2412 11.6161 13.9809 11.6161 12.4321C11.6161 10.8834 10.5716 9.62304 9.2569 9.62304C7.94222 9.62304 6.87754 10.8956 6.89766 12.4321C6.91777 13.9687 7.93216 15.2412 9.2569 15.2412ZM17.9783 15.2412C19.2714 15.2412 20.3376 13.9809 20.3376 12.4321C20.3376 10.8834 19.293 9.62304 17.9783 9.62304C16.6636 9.62304 15.599 10.8956 15.6191 12.4321C15.6392 13.9687 16.6636 15.2412 17.9769 15.2412H17.9783ZM4.53123 2.51103C6.23242 1.68097 8.02843 1.09046 9.87329 0.751724C9.90777 0.744095 9.94226 0.762405 9.9595 0.794448C10.2038 1.26594 10.4265 1.74963 10.6247 2.24554C12.6133 1.92511 14.6363 1.92511 16.6248 2.24554C16.8246 1.74963 17.0501 1.26441 17.3001 0.794448C17.3174 0.762405 17.3519 0.74562 17.3864 0.751724C19.2312 1.08894 21.0272 1.68097 22.7284 2.51103C22.7428 2.51714 22.7543 2.52934 22.7629 2.54308C26.1653 7.94155 27.0977 13.2073 26.6423 18.412C26.6394 18.4379 26.6279 18.4623 26.6078 18.4776C24.6264 20.0355 22.4109 21.2256 20.0545 21.9962C20.02 22.0069 19.9841 21.9947 19.9626 21.9642C19.4568 21.2317 19.0085 20.4581 18.622 19.6479C18.6019 19.6037 18.6191 19.5503 18.6594 19.5289C18.6622 19.5289 18.6651 19.5258 18.668 19.5258C19.3749 19.239 20.0603 18.8926 20.7154 18.4898C20.7571 18.4654 20.7715 18.412 20.7499 18.3677C20.7442 18.3555 20.7356 18.3448 20.7241 18.3372C20.5804 18.2273 20.4482 18.1144 20.3174 17.9985C20.293 17.9771 20.2614 17.9725 20.2327 17.9863C15.9381 20.069 11.2871 20.069 7.04277 17.9863C7.01404 17.971 6.98099 17.9756 6.95657 17.9969C6.82582 18.1114 6.68788 18.2273 6.54851 18.3357C6.50972 18.3647 6.5011 18.4196 6.52696 18.4608C6.53415 18.4715 6.5442 18.4822 6.5557 18.4883C7.20801 18.8911 7.89049 19.2359 8.59597 19.5182C8.63907 19.535 8.66062 19.5869 8.64482 19.6327C8.64482 19.6357 8.64194 19.6388 8.64051 19.6418C8.24826 20.4475 7.80141 21.2211 7.30284 21.9581C7.28272 21.9886 7.24536 22.0023 7.21088 21.9916C4.8502 21.2241 2.63034 20.034 0.647543 18.473C0.627428 18.4577 0.615932 18.4349 0.613058 18.4089C0.0656357 12.397 1.52974 7.17405 4.49244 2.54003C4.50106 2.52629 4.51399 2.51561 4.5298 2.51103H4.53123Z" fill="white"/>
</svg>
