<svg width="95" height="96" viewBox="0 0 95 96" fill="none" xmlns="http://www.w3.org/2000/svg">
<g clip-path="url(#clip0_22_2)">
<path d="M43 72C43 76.4 39.4 80 35 80C30.6 80 27 76.4 27 72C27 67.6 30.6 64 35 64C39.4 64 43 67.6 43 72ZM35 40C30.6 40 27 43.6 27 48C27 52.4 30.6 56 35 56C39.4 56 43 52.4 43 48C43 43.6 39.4 40 35 40ZM35 16C30.6 16 27 19.6 27 24C27 28.4 30.6 32 35 32C39.4 32 43 28.4 43 24C43 19.6 39.4 16 35 16ZM59 32C63.4 32 67 28.4 67 24C67 19.6 63.4 16 59 16C54.6 16 51 19.6 51 24C51 28.4 54.6 32 59 32ZM59 40C54.6 40 51 43.6 51 48C51 52.4 54.6 56 59 56C63.4 56 67 52.4 67 48C67 43.6 63.4 40 59 40ZM59 64C54.6 64 51 67.6 51 72C51 76.4 54.6 80 59 80C63.4 80 67 76.4 67 72C67 67.6 63.4 64 59 64Z" fill="#999999"/>
</g>
<defs>
<clipPath id="clip0_22_2">
<rect width="96" height="96" fill="white" transform="translate(-1)"/>
</clipPath>
</defs>
</svg>
