<svg width="26" height="26" viewBox="0 0 26 26" fill="none" xmlns="http://www.w3.org/2000/svg">
<path d="M13 0.5C6.09694 0.5 0.5 6.09694 0.5 13C0.5 19.9031 6.09694 25.5 13 25.5C19.9031 25.5 25.5 19.9031 25.5 13C25.5 6.09694 19.9031 0.5 13 0.5ZM20.4235 20.4235C19.4592 21.3878 18.3367 22.1454 17.0867 22.6735C16.7704 22.8087 16.4464 22.926 16.1199 23.0281V21.1556C16.1199 20.1709 15.7832 19.4464 15.1071 18.9821C15.5306 18.9413 15.9184 18.8852 16.273 18.8112C16.6276 18.7372 17 18.6327 17.3954 18.4949C17.7908 18.3571 18.1429 18.1913 18.4566 18C18.7704 17.8087 19.0714 17.5612 19.3597 17.2551C19.648 16.9515 19.8903 16.6046 20.0867 16.2168C20.2832 15.8291 20.4362 15.3648 20.551 14.8265C20.6658 14.2857 20.7219 13.6888 20.7219 13.0383C20.7219 11.7755 20.3112 10.7015 19.4898 9.81633C19.8648 8.83929 19.824 7.77806 19.3673 6.6301L19.0612 6.59439C18.8495 6.57143 18.4694 6.65816 17.9209 6.86225C17.3724 7.06633 16.7551 7.40051 16.0714 7.86225C15.102 7.59439 14.0969 7.45918 13.0561 7.45918C12.0153 7.45918 11.0051 7.59439 10.0536 7.86225C9.62245 7.56888 9.21429 7.32653 8.82653 7.1352C8.43878 6.94388 8.1301 6.81378 7.89796 6.7449C7.66582 6.67602 7.45153 6.63265 7.25 6.61735C7.05102 6.60204 6.92347 6.59694 6.8648 6.60459C6.80867 6.61225 6.76786 6.6199 6.74235 6.62755C6.28571 7.78316 6.24745 8.84439 6.6199 9.81378C5.79847 10.7015 5.38776 11.7755 5.38776 13.0357C5.38776 13.6862 5.44388 14.2832 5.55867 14.824C5.67347 15.3648 5.82653 15.8291 6.02296 16.2143C6.21939 16.5995 6.45918 16.9464 6.75 17.2526C7.04082 17.5587 7.33929 17.8061 7.65306 17.9974C7.96684 18.1888 8.32143 18.3546 8.71429 18.4923C9.10969 18.6301 9.48214 18.7372 9.83674 18.8087C10.1913 18.8801 10.5791 18.9388 11.0026 18.9796C10.3342 19.4362 10.0026 20.1582 10.0026 21.1531V23.0638C9.63265 22.9541 9.27041 22.824 8.91327 22.6735C7.66327 22.1454 6.54082 21.3878 5.57653 20.4235C4.61225 19.4592 3.85459 18.3367 3.32653 17.0867C2.77806 15.7934 2.50255 14.4184 2.50255 13C2.50255 11.5816 2.78061 10.2066 3.32653 8.91327C3.85459 7.66327 4.61225 6.54082 5.57653 5.57653C6.54082 4.61225 7.66327 3.85459 8.91327 3.32653C10.2066 2.77806 11.5816 2.50255 13 2.50255C14.4184 2.50255 15.7934 2.78061 17.0867 3.32653C18.3367 3.85459 19.4592 4.61225 20.4235 5.57653C21.3878 6.54082 22.1454 7.66327 22.6735 8.91327C23.2194 10.2066 23.4974 11.5816 23.4974 12.9974C23.4974 14.4133 23.2194 15.7908 22.6735 17.0842C22.1454 18.3342 21.3878 19.4592 20.4235 20.4235Z" fill="white"/>
</svg>
