<svg width="40" height="40" viewBox="0 0 40 40" fill="none" xmlns="http://www.w3.org/2000/svg">
<path d="M25.2844 7.5H14.7156C10.7304 7.5 7.5 10.7304 7.5 14.7156V25.2844C7.5 29.2696 10.7304 32.5 14.7156 32.5H25.2844C29.2696 32.5 32.5 29.2696 32.5 25.2844V14.7156C32.5 10.7304 29.2696 7.5 25.2844 7.5ZM30.1977 25.4702C30.1977 28.1153 28.0532 30.2598 25.408 30.2598H14.592C11.9468 30.2598 9.80231 28.1153 9.80231 25.4702V14.6541C9.80231 12.009 11.9468 9.86446 14.592 9.86446H25.4073C28.0525 9.86446 30.197 12.009 30.197 14.6541L30.1977 25.4702Z" fill="white"/>
<path d="M20 13.75C16.5483 13.75 13.75 16.5483 13.75 20C13.75 23.4517 16.5483 26.25 20 26.25C23.4517 26.25 26.25 23.4517 26.25 20C26.25 16.5483 23.4517 13.75 20 13.75ZM20 24.0518C17.7621 24.0518 15.9482 22.2379 15.9482 20C15.9482 17.7621 17.7621 15.9482 20 15.9482C22.2379 15.9482 24.0518 17.7621 24.0518 20C24.0518 22.2379 22.2379 24.0518 20 24.0518Z" fill="white"/>
<path d="M26.875 15C27.9105 15 28.75 14.1605 28.75 13.125C28.75 12.0895 27.9105 11.25 26.875 11.25C25.8395 11.25 25 12.0895 25 13.125C25 14.1605 25.8395 15 26.875 15Z" fill="white"/>
</svg>
