<svg width="16" height="14" viewBox="0 0 16 14" fill="none" xmlns="http://www.w3.org/2000/svg">
<path fill-rule="evenodd" clip-rule="evenodd" d="M7.707 13.707C7.51947 13.8944 7.26516 13.9998 7 13.9998C6.73484 13.9998 6.48053 13.8944 6.293 13.707L0.293 7.70697C0.105529 7.51944 0.000214212 7.26513 0.000214235 6.99997C0.000214258 6.7348 0.105529 6.4805 0.293 6.29297L6.293 0.292968C6.4816 0.11081 6.73421 0.0100155 6.9964 0.012294C7.2586 0.0145724 7.50941 0.119742 7.69482 0.30515C7.88023 0.490558 7.9854 0.741371 7.98767 1.00357C7.98995 1.26576 7.88916 1.51837 7.707 1.70697L3.414 5.99997L15 5.99997C15.2652 5.99997 15.5196 6.10533 15.7071 6.29286C15.8946 6.4804 16 6.73475 16 6.99997C16 7.26519 15.8946 7.51954 15.7071 7.70708C15.5196 7.89461 15.2652 7.99997 15 7.99997L3.414 7.99997L7.707 12.293C7.89447 12.4805 7.99979 12.7348 7.99979 13C7.99979 13.2651 7.89447 13.5194 7.707 13.707V13.707Z" fill="#8899A8"/>
</svg>
