<svg width="16" height="10" viewBox="0 0 16 10" fill="none" xmlns="http://www.w3.org/2000/svg">
<path fill-rule="evenodd" clip-rule="evenodd" d="M9.99992 2C9.7347 2 9.48035 1.89464 9.29281 1.70711C9.10528 1.51957 8.99992 1.26522 8.99992 1C8.99992 0.734784 9.10528 0.48043 9.29281 0.292893C9.48035 0.105357 9.7347 0 9.99992 0H14.9999C15.2651 0 15.5195 0.105357 15.707 0.292893C15.8946 0.48043 15.9999 0.734784 15.9999 1V6C15.9999 6.26522 15.8946 6.51957 15.707 6.70711C15.5195 6.89464 15.2651 7 14.9999 7C14.7347 7 14.4803 6.89464 14.2928 6.70711C14.1053 6.51957 13.9999 6.26522 13.9999 6V3.414L9.70692 7.707C9.51939 7.89447 9.26508 7.99979 8.99992 7.99979C8.73475 7.99979 8.48045 7.89447 8.29292 7.707L5.99992 5.414L1.70692 9.707C1.51832 9.88916 1.26571 9.98995 1.00352 9.98767C0.741321 9.9854 0.490508 9.88023 0.3051 9.69482C0.119692 9.50941 0.0145233 9.2586 0.0122448 8.9964C0.00996641 8.7342 0.110761 8.4816 0.292919 8.293L5.29292 3.293C5.48045 3.10553 5.73475 3.00021 5.99992 3.00021C6.26508 3.00021 6.51939 3.10553 6.70692 3.293L8.99992 5.586L12.5859 2H9.99992Z" fill="#3B454E"/>
</svg>
