<svg width="28" height="24" viewBox="0 0 28 24" fill="none" xmlns="http://www.w3.org/2000/svg">
<path d="M27.998 2.84075C26.9678 3.32306 25.8605 3.64808 24.6989 3.79496C25.8852 3.04492 26.7959 1.85841 27.2246 0.443769C26.1144 1.13859 24.8856 1.64174 23.5768 1.91362C22.5288 0.735449 21.0363 0 19.3838 0C16.2111 0 13.639 2.71262 13.639 6.05755C13.639 6.53258 13.6894 6.9951 13.7881 7.43782C9.01429 7.18469 4.78075 4.77312 1.94786 1.10838C1.45299 2.00321 1.17049 3.04388 1.17049 4.15435C1.17049 6.25652 2.18492 8.11077 3.72583 9.19727C2.78449 9.16602 1.89847 8.89309 1.12407 8.43995C1.12407 8.46495 1.12407 8.49099 1.12407 8.51599C1.12407 11.4515 3.10453 13.8996 5.73197 14.4569C5.24994 14.5954 4.74223 14.6694 4.21872 14.6694C3.84831 14.6694 3.48876 14.6308 3.13811 14.561C3.86905 16.9674 5.99076 18.7196 8.5046 18.7685C6.53896 20.3936 4.06166 21.3624 1.37002 21.3624C0.906763 21.3624 0.44943 21.3332 0 21.278C2.54249 22.9968 5.56207 24 8.80587 24C19.3719 24 25.1503 14.7683 25.1503 6.76279C25.1503 6.50028 25.1444 6.23881 25.1335 5.97943C26.2556 5.12522 27.2295 4.05851 28 2.84387L27.998 2.84075Z" fill="white"/>
</svg>
